<svg width="24" height="24" viewBox="0 0 24 24" fill="none" xmlns="http://www.w3.org/2000/svg">
<path d="M15 9H16V8H15V9Z" fill="white"/>
<path d="M16 10H17V9H16V10Z" fill="white"/>
<path d="M16 15H17V14H16V15Z" fill="white"/>
<path d="M15 16H16V15H15V16Z" fill="white"/>
<path d="M13 11H14V10H13V11Z" fill="white"/>
<path d="M13 14H14V13H13V14Z" fill="white"/>
<path d="M18 10H17V14H18V10Z" fill="white"/>
<path d="M15 11H14V13H15V11Z" fill="white"/>
<path d="M8 17V18H10V17H8Z" fill="white"/>
<path d="M6 16V17H8V16H6Z" fill="white"/>
<path d="M4 15V16H6V15H4Z" fill="white"/>
<path d="M4 9H3V15H4V9Z" fill="white"/>
<path d="M6 9V8H4V9H6Z" fill="white"/>
<path d="M8 8V7H6V8H8Z" fill="white"/>
<path d="M10 7V6H8V7H10Z" fill="white"/>
<path d="M10 17H11V7H10V17Z" fill="white"/>
<path d="M18.6667 8H19.6667V7H18.6667V8Z" fill="white"/>
<path d="M18.6667 17H19.6667V16H18.6667V17Z" fill="white"/>
<path d="M19.6667 16H20.6667V14H19.6667V16Z" fill="white"/>
<path d="M21.6667 10H20.6667V14H21.6667V10Z" fill="white"/>
<path d="M20.6667 8H19.6667V10H20.6667V8Z" fill="white"/>
</svg>
